<?xml version="1.0" encoding="utf-8"?>
<!-- Generator: Adobe Illustrator 27.5.0, SVG Export Plug-In . SVG Version: 6.00 Build 0)  -->
<svg version="1.1" xmlns="http://www.w3.org/2000/svg" xmlns:xlink="http://www.w3.org/1999/xlink" x="0px" y="0px"
	 viewBox="0 0 750 500" style="enable-background:new 0 0 750 500;" xml:space="preserve">
<g id="Background_Complete">
	<g>
		<g>
			<g>
				
					<ellipse transform="matrix(0.2298 -0.9732 0.9732 0.2298 -31.8467 232.7565)" style="fill:#EBEBEB;" cx="131.127" cy="136.498" rx="37.981" ry="37.981"/>
			</g>
			<g>
				<path style="fill:#F5F5F5;" d="M126.19,148.354c0,3.421-2.773,6.195-6.195,6.195c-3.421,0-6.195-2.773-6.195-6.195
					c0-3.421,2.773-6.195,6.195-6.195C123.416,142.159,126.19,144.932,126.19,148.354z"/>
			</g>
			<g>
				<path style="fill:#F5F5F5;" d="M117.404,130.477c0,1.99-1.613,3.603-3.604,3.603c-1.99,0-3.603-1.613-3.603-3.603
					s1.613-3.604,3.603-3.604C115.791,126.874,117.404,128.487,117.404,130.477z"/>
			</g>
		</g>
		<g>
			<path style="fill:#F5F5F5;" d="M94.281,145.735c0.17,0.659-32.507,32.012-24.084,38.692c8.423,6.68,43.856-10.456,74.062-34.853
				c30.206-24.397,57.797-54.021,50.246-61.863c-7.551-7.842-45.3,15.377-45.3,15.377l4.512,2.876c0,0,22.823-14.643,30.042-8.959
				c7.219,5.684-13.36,27.882-42.404,49.084c-29.044,21.202-57.107,36.085-61.463,30.277c-4.357-5.809,16.199-25.184,16.199-25.184
				L94.281,145.735z"/>
		</g>
	</g>
	<g>
		<g>
			
				<ellipse transform="matrix(0.7615 -0.6482 0.6482 0.7615 -97.5683 503.2906)" style="fill:#F5F5F5;" cx="635.034" cy="384.211" rx="31.326" ry="31.326"/>
		</g>
		<g>
			<path style="fill:#EBEBEB;" d="M639.337,374.532c0.067-2.821,2.408-5.053,5.229-4.987c2.821,0.067,5.053,2.408,4.987,5.229
				c-0.067,2.821-2.408,5.053-5.229,4.986C641.502,379.694,639.27,377.353,639.337,374.532z"/>
		</g>
		<g>
			<path style="fill:#EBEBEB;" d="M646.231,389.444c0.039-1.641,1.401-2.94,3.042-2.901c1.641,0.039,2.94,1.401,2.901,3.042
				c-0.039,1.641-1.401,2.94-3.042,2.901C647.491,392.446,646.192,391.085,646.231,389.444z"/>
		</g>
	</g>
	<g>
		<g>
			
				<ellipse transform="matrix(0.7071 -0.7071 0.7071 0.7071 -68.1408 339.7473)" style="fill:#F5F5F5;" cx="376.041" cy="252.127" rx="171.218" ry="171.219"/>
		</g>
		<g>
			<path style="fill:#EBEBEB;" d="M522.602,193.329c-1.415-1.708-1.606-7.323-4.966-4.114c0.239-2.82-0.894-9.537,4.111-8.911
				c5.462,0.684,2.961,6.602,4.234,9.642c1.49,3.56,6.463,3.859,9.298,5.875c1.923,1.367,3.074,3.404,4.159,5.024
				c-7.214-23.008-19.179-43.899-34.707-61.589c-0.008,0.137-0.033,0.273-0.036,0.41c-3.629-0.24-6.888,4.584-6.219,7.616
				c0.113,0.512,1.581,1.394,1.768,2.497c0.185,1.095-0.771,1.569-0.804,2.43c-0.076,2.011-0.601,3.914,2.116,4.457
				c1.747-3.343,5.676,0.621,6.474,2.839c1.399,3.89-0.298,5.846,2.46,8.995c1.071,1.223,4.248,2.719,3.615,4.876
				c-0.624,2.127-2.258,1.733-3.822,1.131c-2.53-0.972-3.893-4.776-6.863-4.889c-1.983,4.941-0.129,11.345-1.689,16.608
				c-0.869,2.93-1.937,3.042,0.59,5.213c0.91,0.782,1.535-0.09,2.601,1.177c0.628,0.746,0.638,2.355,0.573,3.271
				c1.4-0.847,2.633-2.153,4.43-1.973c-2.679,2.303-2.261,6.621-4.121,9.557c-2.331,3.679-4.27,2.448-7.471,3.923
				c-5.586,2.575-2.702,7.597-3.297,11.762c-0.347,2.431-2.351,4.479-3.301,6.81c-1.357,3.33-2.199,6.715-2.259,10.301
				c-0.07,4.174,1.269,7.96,2.063,12.023c0.642,3.285,0.658,9.573,3.867,11.472c1.943,1.15,8.167,0.929,10.782,1.326
				c2.53,0.384,5.703-0.988,7.911,0.132c2.088,1.059,1.886,4.61,4.712,3.81c1.595-0.452,2.509-4.177,4.502-4.879
				c3.187-1.122,5.711,1.802,6.591,4.308c1.121,3.189-0.541,3.301-1.402,6.701c-0.679,2.68-0.02,5.521,0.862,8.028
				c1.782,5.07-0.188,2.854-2.044,7.575c1.315,0.393,2.738,0.473,4.091,0.46c0.105,1.814,0.487,4.483,0.068,6.263
				c-1.171,4.97-5.976,7.704-6.233,13.472c-0.236,5.277,2.189,11.63,1.186,16.798c-0.734,3.784-5.008,6.25-4.304,10.623
				c2.39-1.538,4.213-3.968,6.837-5.26c11.679-23.15,18.297-49.289,18.297-76.989c0-15.585-2.121-30.668-6.023-45.018
				c-2.859-1.284-5.458-3.123-7.778-5.645C530.51,198.258,525.298,196.584,522.602,193.329z"/>
		</g>
		<g>
			<path style="fill:#EBEBEB;" d="M398.756,85.803c2.103,0.382,4.475,0.351,6.55,0.855c2.355,0.573,4.048,2.187,6.586,1.16
				c1.147-0.464,2.125-1.403,2.881-2.456c-12.452-2.881-25.405-4.454-38.732-4.454c-31.284,0-60.582,8.431-85.819,23.084
				c6.545,0.41,5.075,7.762,10.717,1.707c2.512-2.695,5.303-6.39,8.497-8.75c3.588-2.65,7.687-0.859,12.01-0.971
				c-1.439,1.033-9.483,6.817-8.591,8.715c1.222,2.603,5.685-0.554,3.936,4.474c-1.56,4.484-7.937,1.433-11.891,1.737
				c-3.059,0.236-4.73,2.285-8.039,2.445c-3.472,0.168-6.954-0.81-10.331-0.712c-5.4,0.157-8.855,3.269-12.145,7.062
				c-1.908,2.2-4.159,3.844-5.554,6.491c-1.524,2.894-0.912,6.684-2.331,9.293c-1.218,2.24-4.007,2.607-5.997,3.939
				c-2.357,1.579-5.348,4.421-7.2,6.573c-3.214,3.735-4.648,10.831-10.132,12.187c-0.777,5.772,7.962-2.274,10.563-1.121
				c1.329-1.762,1.843-4.094,3.813-5.415c2.102-1.409,4.752-1.082,7.02-2.529c4.299-2.741,2.917-8.751,8.267-9.765
				c4.322-0.819,9.156-1.666,10.217,3.09c0.526,2.358-0.391,2.138-0.461,4.415c-0.094,3.055-0.344,1.178,1.936,3.05
				c3.445,2.83,4.027,6.245,1.313,10.236c-1.286,1.89-2.035,1.628-2.79,4.078c-0.792,2.57-0.507,5.077-0.421,7.65
				c0.096,2.872-0.185,5.66-0.276,8.527c-0.153,4.781,1,6.56,4.779,9.575c2.872,2.291,5.933,3.967,7.412,7.545
				c1.284,3.106,1.039,6.812,1.885,9.996c0.883,3.324,9.177,10.282,8.268,4.353c-0.469-3.058-3.957-3.747-3.935-7.474
				c0.009-1.508,0.619-3.736,0.784-5.327c4.749-1.295,3.495,6.805,4.769,9.221c1.811,3.435,6.536,5.645,9.007,8.367
				c-2.288,1.068-6.15,3.307-4.874,6.477c1.613,4.005,6.729,1.208,9.546,1.276c6.158,0.148,12.28,4.261,17.302,7.555
				c4.776,3.133,6.706,5.007,12.729,4.545c3.904-0.299,7.351,0.278,10.883,2.14c2.849,1.502,4.233,2.822,5.691,5.594
				c1.91,3.632,2.763,4.923,5.974,7.388c2.103,1.615,3.2,3.361,5.529,3.246c1.606-0.079,2.764-2.411,5.198-1.655
				c4.647,1.445,3.294,7.337,1.774,10.048c-1.28,2.284-2.478,5.225-3.902,7.485c-1.814,2.877-6.575,3.945-7.123,7.749
				c-0.52,3.61,3.492,7.737,4.388,11.146c0.813,3.093,0.716,6.498,0.721,9.664c-2.049,2.923,10.156,13.24,12.427,15.22
				c3.316,2.89,8.159,6.728,9.447,11.143c0.528,1.81,0.221,4.645,0.406,6.554c0.384,3.961,0.465,8.131,0.283,12.156
				c-0.266,5.905-4.514,9.518-5.519,15.114c-0.808,4.497,0.795,9.212,0.111,13.649c-0.311,2.018-0.695,4.845-1.197,6.805
				c-0.482,1.886-1.459,1.94-2.251,3.323c-1.421,2.482-0.704,4.933,0.499,7.618c3.763-2.71,6.883,2.409,8.647,4.997
				c2.211,3.243,4.851,4.534,9.429,3.971c-1.803-1.486-4.832-6.322-4.212-8.983c0.911-3.908,6.559-7.065,8.459-10.34
				c2.048-3.529,1.469-6.823,5.708-8.396c1.187-0.44,2.589-0.219,3.782-0.712c1.476-0.611,2.261-2.003,3.706-2.69
				c3.94-1.872,4.84-1.371,6.478-5.756c1.985-5.313,3.701-12.046,8.75-15.408c1.985-1.322,4.167-1.234,6.329-2.166
				c2.37-1.021,3.11-2.642,5.042-4.008c3.09-2.185,5.109-3.939,7.655-6.851c2.694-3.08,4.815-6.544,6.835-10.197
				c1.267-2.291,1.817-4.427,3.744-6.266c0.811-0.774,2.043-1.092,2.947-1.992c3.472-3.456,4.767-8.997,7.777-12.79
				c1.696-2.137,3.363-3.345,4.299-5.815c-0.268-0.922-0.938-1.551-1.37-2.338c-0.729-1.33-2.512-2.565-3.405-3.937
				c-0.311-0.478-0.421-1.959-0.732-2.291c-2.489-2.657-8.524-4.057-11.876-4.194c-4.596-0.187-11.472-0.889-14.47-5.038
				c-2.233-3.091,1.582-7.484,0.121-10.779c-1.822-4.108-11.389-6.086-15.055-8.318c-2.525-1.537-4.239-3.88-6.754-5.45
				c-3.67-2.291-5.867-3.235-7.426-7.275c-0.936-2.424,0.504-2.836-2.434-3.754c-2.727-0.852-7.003,1.529-10.055,1.769
				c-2.273,0.179-4.832,0.648-7.031-0.015c-2.694-0.812-4.684-3.871-7.498-4.396c-2.534-0.472-7.524,0.717-9.837,2.24
				c-1.951,1.284-3.006,3.591-5.168,4.594c-3.115,1.446-2.894-0.45-5.917-0.711c-3.006-0.259-4.583,1.386-6.891-2.04
				c-3.128-4.644-1.853-14.124-9.223-14.596c-2.197-0.141-6.414,1.694-7.762-1.11c-1.994-4.147,5.159-9.635,4.126-14.11
				c-1.078-4.668-9.779,1.463-11.741,4.039c-1.252,1.644-2.239,5.681-4.868,5.967c-1.97,0.214-6.049-2.403-7.249-3.852
				c-2.088-2.523-2.224-7.436-2.524-10.628c-0.565-6.017,0.816-7.87,5.004-12.354c3.695-3.957,4.464-4.3,9.201-5.127
				c2.909-0.508,2.881-1.537,5.343-0.247c1.18,0.618,1.918,2.463,3.357,3.047c2.014-1.944,3.372-2.579,6.071-2.044
				c1.934,0.384,5.999,2.633,7.066,4.456c0.651,1.111,1.667,11.084,5.259,4.96c-2.091-1.724-1.531-3.753-2.376-5.663
				c-0.811-1.833-2.796-3.295-3.157-5.685c-0.421-2.785,2.059-8.575,5.178-9.181l-0.347-3.122c3.511-0.494,7.681-9.011,6.964-13.191
				c-0.358-2.088-2.634-1.925-1.419-4.936c1.422-3.526,3.866-1.685,6.849-2.335c3.099-0.675,2.553-2.605,4.677-4.189
				c2.326-1.735,3.413-0.407,5.386-0.319c3.695,0.163,8.544,0.982,8.82-4.138c2.254-0.313,4.228-1.011,6.487-0.064
				c0.305-4.04-0.59-6.914-4.021-9.226c-3.042-2.049-7.019-2.643-10.135-4.63c-2.011-1.282-3.455-3.14-5.362-4.503
				c-3.081-2.201-5.2-4.634-7.98-7.109c-3.554-3.163-6.966,0.834-11.67,0.175c-6.228-0.872-5.827-5.567-9.68-8.35
				c-0.441-0.318-1.715,0.114-2.283-0.17c-0.709-0.354-2.175-1.959-2.754-2.582c-1.963-2.113-3.817-5.199-4.024-8.356
				c6.871-3.946,8.612,5.464,11.48,8.881c1.302,1.551,6.41,2.522,2.412,4.968c2.765,0.193,5.228-0.214,7.817,0.399
				c1.217,0.288,2.255,0.951,3.586,1.027c0.278-2.129-0.489-4.226-0.91-6.27c-0.194-0.944,0.076-1.913-0.315-2.822
				c-0.573-1.332-1.982-1.987-2.511-3.087c-1.524-3.169,0.381-3.171-3.083-5.084c-2.38-1.314-5.244-2.254-7.706-3.357
				c-1.702-0.762-3.524-1.432-4.813-2.714c-0.613-0.61-4.476-4.682-4.771-5.415c-2.733-6.796,7.92-0.622,10.362-0.04
				c3.964,0.944,8.001,2.484,11.787,3.925c3.148,1.198,3.194,1.902,4.4,5.047c2.18,5.683,5.248,2.968,8.714,6.77
				c2.086,2.289,3.723,6.404,5.521,9.108c2.274,3.42,11.191,14.094,16.17,8.958c2.671-2.755-2.492-7.559-2.593-10.237
				c-0.107-2.855,1.818-4.612,3.794-6.168c3.306-2.603,4.074-3.682,0.158-6.847c-4.808-3.886-10.096-4.515-15.844-6.343
				c-6.227-1.98-7.885-5.573-11.043-10.622c2.078-0.38,4.265-0.548,6.401-0.743C395.027,85.551,396.916,85.468,398.756,85.803z
				 M335.285,129.699c-0.814,2.127-2.302,1.469-3.692,2.557c-2.142,1.677,1.637,4.648,0.107,5.735
				c-0.541,0.385-3.494,0.228-4.156,0.007c-1.712-0.57-2.24-1.779-4.249-1.759c-2.627,0.027-5.27-0.49-4.685-3.801
				c0.274-1.552,1.836-3.09,1.097-4.791c-0.357-0.822-2.021-2.121-2.755-2.622c-0.694-0.473-1.548-0.403-2.155-0.782
				c-1.363-0.852-0.843-4.212,0.667-4.801c0.05,4.633,6.93,0.451,8.353,2.581c1.331,2.099-1.414,2.949,0.386,4.35
				c1.043,0.812,3.807,0.818,4.857,0.511c1.62-0.473,4.323-2.911,5.924-1.143C335.654,126.483,335.612,128.844,335.285,129.699z
				 M357.334,121.537c1.708,0.491,1.404,1.314,2.3,2.663c1.018,1.533,2.707,1.385,3.915,2.499c2.293,2.114-1.325,4.891,0.01,7.497
				c1.166,2.276,14.254,5.676,5.711,8.45c-2.505,0.814-3.978-0.827-6.249-1.465c-1.883-0.529-5.59-0.205-7.306,0.793
				c-4.164,2.424,5.177,6.917-0.586,8.658c-1.172,0.354-4.962,0.128-5.363-1.321c-0.357-1.286,1.444-1.261,1.816-2.488
				c1.469-4.847-4.478-1.856-6.13-2.278c-2.341-0.597-1.609-4.801,0.242-5.742c1.007-0.512,3.554-0.241,4.673-0.261
				c1.829-0.033,3.66,0.248,5.49,0.085c0.848-3.512-4.424-5.301-7.198-5.674c-2.182-0.294-2.471-0.729-4.275-2.043
				c-2.162-1.575-3.113-1.138-1.593-4.02c1.328-2.518,3.494-3.86,5.657-5.56c1.026-0.502,1.81,0.548,2.806,0.659
				C353.267,122.214,355.332,120.963,357.334,121.537z"/>
		</g>
		<g>
			<path style="fill:#EBEBEB;" d="M372.388,210.841c-1.952-0.681-8.902,1.831-6.053,3.883c1.934,1.392,6.513-0.399,8.872,0.145
				c2.437,0.562,5.295-0.326,7.607,0.614c1.71,0.695,2.633,2.273,4.54,2.751c2.305,0.577,3.521-0.365,1.374-2.159
				c-1.507-1.259-3.612-1.6-5.369-2.412c-1.327-0.614-2.528-1.817-3.864-2.171C377.731,211.024,373.778,212.616,372.388,210.841z"/>
		</g>
		<g>
			<path style="fill:#EBEBEB;" d="M396.674,221.249c-1.716,1.077-3.344,1.625-3.914,3.825c-0.667,2.574,0.401,2.096,2.136,1.098
				c1.108-0.638,2.622-1.722,3.997-1.652c1.29,0.067,2.445,1.062,3.744,1.294c2.287,0.409,4.801,0.067,6.614-1.515
				c1.428-1.246,1.538-2.873-0.695-3.232c-1.688-0.271-4.397,0.559-6.16,0.74C400.514,222.001,397.618,222.097,396.674,221.249z"/>
		</g>
		<g>
			<path style="fill:#EBEBEB;" d="M477.616,385.65c-3.915,2.694-6.298,6.373-10.923,8.275c-5.032,2.069-9.743,4.91-14.903,6.961
				c-5.081,2.02-10.788,5.319-16.142,6.625c-4.465,1.089-9.494-1.038-13.976-0.916c-4.808,0.131-9.281,1.097-13.822,2.272
				c-3.109,0.804-3.01,0.233-5.424-0.694c-1.781-0.684-1.747-0.742-3.738-0.946c-1.551-0.158-3.096-0.021-4.577-0.337
				c-0.079,2.153,4.666,6.511,6.472,7.88c-13.966,1.209-28.906-0.565-42.816-2.009c-4.095-0.425-6.52,1.353-10.439,1.862
				c-3.608,0.468-6.667-1.489-10.306-1.516c-4.38-0.032-6.304,0.874-8.168,3.598c14.996,4.292,30.814,6.639,47.189,6.639
				c41.748,0,79.991-14.958,109.704-39.785c-0.014-0.559-0.053-1.106-0.134-1.631C483.329,382.864,479.683,384.228,477.616,385.65z"
				/>
		</g>
		<g>
			<g>
				<path style="fill:#EBEBEB;" d="M210.122,253.841c0.622-1.583,1.162-3.819,0.763-5.53c-0.451-1.937-1.361-1.774-2.257-3.323
					c-2.469-4.27,1.212-4.773,1.203-8.372c-0.005-2.097-4.356-7.092-1.475-9.24c1.303-0.971,6.056,1.38,8.391,0.395
					c-0.412-3.451-3.811-2.397-5.191-4.744c-2.059-3.503,1.362-4.238,2.424-5.798c3.439-5.053-1.429-7.611-2.672-11.748
					c-4.193,14.835-6.485,30.469-6.485,46.646c0,0.617,0.04,1.224,0.047,1.84C206.122,252.87,207.748,252.559,210.122,253.841z"/>
			</g>
			<g>
				<path style="fill:#EBEBEB;" d="M215.76,205.244c1.719-0.548,1.054-4.742,1.368-5.889c0.883-3.232,3.268-7.375,5.047-10.038
					c2.821-4.222,1.564-5.784,0.933-10.937c-0.107-0.875-0.172-1.816-0.239-2.752c-4.174,8.341-7.712,17.053-10.495,26.102
					C213.325,203.205,214.568,205.624,215.76,205.244z"/>
			</g>
		</g>
		<g>
			<path style="fill:#EBEBEB;" d="M211.927,233.392c-2.661,7.841,5.736,8.948,5.901,15.439c0.061,2.389-1.169,10.617,3.83,10.008
				c2.025-4.555-1.214-5.192-0.641-9.418c0.388-2.861,2.457-3.677-0.745-6.055c-0.887-0.658-2.451-0.673-3.158-1.371
				c-0.959-0.947-0.799-2.248-1.399-3.196C214.645,237.112,212.952,236.026,211.927,233.392z"/>
		</g>
		<g>
			<path style="fill:#EBEBEB;" d="M211.927,260.453c-2.118,4.671-6.027,21.482,1.543,21.797c0.838,0.035,2.377-1.5,3.243-0.927
				c0.671,0.444,0.09,2.197,0.401,2.374c1.947,1.104,2.442,1.376,3.223-1.992c0.617-2.661-0.734-2.771-1.132-4.6
				c-0.36-1.652-0.149-3.053-0.044-4.805c-4.89-1.198,4.977-2.238,4.594-4.213c-0.291-1.5-7.595-1.068-8.646-0.74
				c-0.245-1.332,0.031-2.815,0.225-4.058C213.696,262.547,213.203,260.827,211.927,260.453z"/>
		</g>
		<g>
			<path style="fill:#EBEBEB;" d="M236.56,275.719c-4.255,0.253-6.488-3.632-11.494-2.105c-0.024,1.028-0.266,2.161-0.267,3.101
				c1.132-0.336,6.373-1.565,5.532,1.45c-0.704,2.523-5.258-0.665-4.473,3.051c1.301-0.146,3.354-1.119,4.631-0.957
				c1.864,0.237,2.594,1.245,4.337,1.626c2.327,0.508,2.027-0.643,4.486,1.103c1.917,1.362,3.908,3.456,4.54,5.559
				c1.349,4.487-0.653,6.257,5.103,6.956c2.992,0.363,9.343,3.636,9.16-1.288c2.86,0.956,7.237,9.472,11.065,8.617
				c4.799-1.071-4.492-8.542-4.464-9.367c1.892-0.172,6.09-1.972,7.548-2.842c1.589-0.949,2.968-0.719,2.414-3.755
				c-2.268-0.264-3.272,0.837-5.037,1.282c-2.006,0.506-4.204,0.506-6.35,0.329c-5.477-0.452-9.924-2.351-14.188-5.839
				c-2.291-1.874-4.249-3.44-6.644-5.208c-1.556-1.149-1.504-1.878-3.296-2.405C238.023,274.69,236.975,275.305,236.56,275.719z"/>
		</g>
		<g>
			<path style="fill:#EBEBEB;" d="M212.621,286.821c3.061,0,6.333,0.366,9.366,0.007c1.048-0.124,2.252-1.811,3.418-0.63
				c0.427,0.432,0.097,3.134-0.282,3.555c-1.849,2.053-12.057,1.402-11.462-2.585"/>
		</g>
		<g>
			<path style="fill:#EBEBEB;" d="M259.45,310.795c-0.295-5.387-2.368-4.644-4.857-8.091c-0.859,2.229-1.822,6.692-4.833,7.022
				c-4.45,0.487-5.16-6.168-7.82-7.985c-3.814-2.606-12.472-0.075-13.36,3.468c-3.536,1.389-3.773,3.059-5.204,6.041
				c-0.919,1.915-2.21,4.138-3.555,6.108c-0.52,0.762-0.978,1.277-1.387,1.761c3.295,7.741,7.146,15.187,11.499,22.294
				c0.354,0.111,0.759,0.193,1.24,0.231c3.764,0.295,5.776-3.863,8.786-3.474c2.19,0.283,3.788,3.959,5.592,5.458
				c4.955,4.118,13.361,7.184,15.303,13.275c1.174,3.682,2.637,5.288,4.95,8.454c1.618,2.215,1.29,6.132,3.663,7.484
				c0.222-3.601,0.373-6.782,1.354-10.32c1.173-4.235-0.066-7.729,1.893-11.494c1.99-3.823,5.082-6.863,4.732-11.547
				c-0.238-3.189-2.602-7.217-4.873-9.511C266.078,323.41,260.006,320.96,259.45,310.795z"/>
		</g>
		<g>
			<path style="fill:#EBEBEB;" d="M302.826,347.189c-2.781,0.53-1.817,5.946-2.606,8.153c-1.111,3.108-2.219,2.787-5.477,3.634
				c-1.773,0.461-4.425,0.941-6.135,1.735c-3.021,1.403-3.262,3.9-4.136,6.895c3.734,0.315,5.887-4.061,9.249-4.752
				c2.893-0.595,5.261,0.707,8.258-0.6c7.526-3.281,5.664-10.706,6.691-16.747C306.442,345.105,304.911,346.454,302.826,347.189z"/>
		</g>
		<g>
			<path style="fill:#EBEBEB;" d="M305.949,315.617c-0.974,2.229,0.034,7.559,3.295,4.333c1.512-1.496,1.396-5.176-1.501-4.973
				c-0.019,0.462-0.227,0.595-0.406,0.987"/>
		</g>
		<g>
			<path style="fill:#EBEBEB;" d="M330.581,321.168c-2.716,2.128,3.124,5.737,4.093,2.35
				C335.376,321.065,331.474,320.264,330.581,321.168"/>
		</g>
		<g>
			<path style="fill:#EBEBEB;" d="M286.867,262.188c0.789,1.966,5.916,3.598,6.862,6.92c0.873,3.066,0.049,5.733,4.544,5.862
				c-0.112-2.19,1.086-5.064,0.068-6.969c-0.465-0.87-1.977-1.045-2.549-1.988c-0.644-1.063-0.148-2.191-0.6-3.131
				C294.23,260.883,285.831,256.262,286.867,262.188z"/>
		</g>
		<g>
			<path style="fill:#FAFAFA;" d="M416.805,415.408c-96.997,0-175.629-78.632-175.629-175.629
				c0-65.269,35.626-122.185,88.473-152.458c-72.01,20.232-124.826,86.329-124.826,164.805c0,94.561,76.657,171.218,171.218,171.218
				c18.497,0,36.293-2.97,52.981-8.397C424.983,415.233,420.915,415.408,416.805,415.408z"/>
		</g>
	</g>
	<g>
		<path style="fill:#EBEBEB;" d="M406.021,458.772l0.557,1.009c0.625,1.132,1.565,2.063,2.708,2.682l1.018,0.552l-1.018,0.552
			c-1.143,0.619-2.083,1.55-2.708,2.682l-0.557,1.009l-0.557-1.009c-0.625-1.132-1.565-2.063-2.708-2.682l-1.018-0.552l1.018-0.552
			c1.143-0.619,2.082-1.55,2.708-2.682L406.021,458.772z"/>
	</g>
	<g>
		<path style="fill:#EBEBEB;" d="M204.822,419.103l0.557,1.008c0.625,1.132,1.565,2.063,2.708,2.682l1.018,0.552l-1.018,0.552
			c-1.143,0.619-2.082,1.55-2.708,2.682l-0.557,1.009l-0.557-1.009c-0.625-1.132-1.565-2.063-2.708-2.682l-1.018-0.552l1.018-0.552
			c1.143-0.619,2.083-1.55,2.708-2.682L204.822,419.103z"/>
	</g>
	<g>
		<path style="fill:#EBEBEB;" d="M234.977,108.854l0.557,1.008c0.625,1.132,1.565,2.063,2.708,2.682l1.018,0.552l-1.018,0.552
			c-1.143,0.619-2.082,1.55-2.708,2.682l-0.557,1.009l-0.557-1.009c-0.625-1.132-1.565-2.063-2.708-2.682l-1.018-0.552l1.018-0.552
			c1.143-0.619,2.083-1.55,2.708-2.682L234.977,108.854z"/>
	</g>
	<g>
		<path style="fill:#EBEBEB;" d="M659.038,278.462l0.952,1.741c1.069,1.954,2.675,3.56,4.629,4.629l1.741,0.952l-1.741,0.952
			c-1.954,1.069-3.56,2.675-4.629,4.629l-0.952,1.741l-0.952-1.741c-1.069-1.954-2.675-3.56-4.629-4.629l-1.741-0.952l1.741-0.952
			c1.954-1.069,3.56-2.675,4.629-4.629L659.038,278.462z"/>
	</g>
	<g>
		<path style="fill:#EBEBEB;" d="M554.446,104.612l0.557,1.009c0.625,1.132,1.565,2.063,2.708,2.682l1.018,0.552l-1.018,0.552
			c-1.143,0.619-2.083,1.55-2.708,2.682l-0.557,1.008l-0.557-1.008c-0.625-1.132-1.565-2.063-2.708-2.682l-1.018-0.552l1.018-0.552
			c1.143-0.619,2.083-1.55,2.708-2.682L554.446,104.612z"/>
	</g>
	<g>
		<path style="fill:#EBEBEB;" d="M448.297,58.683l0.557,1.009c0.625,1.132,1.565,2.063,2.708,2.682l1.018,0.552l-1.018,0.552
			c-1.143,0.619-2.083,1.55-2.708,2.682l-0.557,1.008l-0.557-1.008c-0.625-1.132-1.565-2.063-2.708-2.682l-1.018-0.552l1.018-0.552
			c1.143-0.619,2.083-1.55,2.708-2.682L448.297,58.683z"/>
	</g>
	<g>
		<path style="fill:#EBEBEB;" d="M106.479,333.784l0.952,1.741c1.069,1.954,2.675,3.56,4.629,4.629l1.741,0.952l-1.741,0.952
			c-1.954,1.069-3.561,2.675-4.629,4.629l-0.952,1.741l-0.952-1.741c-1.069-1.954-2.675-3.56-4.629-4.629l-1.741-0.952l1.741-0.952
			c1.954-1.069,3.561-2.675,4.629-4.629L106.479,333.784z"/>
	</g>
</g>
<g id="Background_Simple" style="display:none;">
	<path style="display:inline;fill:#FAFAFA;" d="M136.326,192.319c1.887,23.752,5.917,54.647,23.56,71.713
		c17.643,17.067,36.514,34.758,58.929,45.56c43.759,21.087,73.729,30.313,126.915,46.021
		c33.112,9.779,118.129,19.562,152.486,16.471c34.357-3.091,58.172-13.315,84.027-42.494c16.48-18.599,22.553-42.715,20.742-63.198
		c-1.964-22.204-24.406-42.545-45.508-52.385s-44.141-12.072-67.112-8.164c-19.872,3.381-41.034,6.274-60.932,2.562
		c-20.707-3.863-37.409-18.698-50.143-34.805c-12.734-16.106-22.809-34.145-37.145-48.987
		c-24.744-25.618-62.447-46.951-98.687-44.817c-36.24,2.134-63.714,11.22-84.269,39.506
		C159.188,119.302,133.123,152.001,136.326,192.319z"/>
</g>
<g id="Stars">
	<g>
		<g>
			<g>
				
					<ellipse transform="matrix(0.9997 -0.0234 0.0234 0.9997 -3.1604 14.0048)" style="fill:#455A64;" cx="597.344" cy="142.159" rx="25.226" ry="25.226"/>
			</g>
			<g>
				<path style="fill:#263238;" d="M605.564,132.497c0.054-2.272,1.939-4.069,4.211-4.016c2.272,0.054,4.07,1.939,4.016,4.211
					c-0.054,2.272-1.939,4.07-4.211,4.016C607.308,136.654,605.51,134.768,605.564,132.497z"/>
			</g>
			<g>
				<path style="fill:#263238;" d="M613.793,142.102c0.031-1.322,1.128-2.367,2.449-2.336c1.321,0.031,2.367,1.128,2.336,2.449
					c-0.031,1.321-1.128,2.367-2.449,2.336C614.807,144.52,613.761,143.424,613.793,142.102z"/>
			</g>
			<g>
				<path style="fill:#263238;" d="M610.581,149.452c0.487,0.012,0.873,0.416,0.861,0.903c-0.012,0.487-0.416,0.873-0.903,0.861
					c-0.487-0.012-0.873-0.416-0.861-0.903C609.689,149.826,610.094,149.44,610.581,149.452z"/>
			</g>
		</g>
		<g>
			<path style="fill:#455A64;" d="M117.404,209.022l0.552,1.008c0.619,1.132,1.55,2.063,2.682,2.682l1.009,0.552l-1.009,0.552
				c-1.132,0.619-2.063,1.55-2.682,2.682l-0.552,1.009l-0.551-1.009c-0.619-1.132-1.55-2.063-2.682-2.682l-1.008-0.552l1.008-0.552
				c1.132-0.619,2.063-1.55,2.682-2.682L117.404,209.022z"/>
		</g>
		<g>
			<path style="fill:#455A64;" d="M316.63,151.06l0.551,1.008c0.619,1.132,1.55,2.063,2.682,2.682l1.008,0.552l-1.008,0.552
				c-1.132,0.619-2.063,1.55-2.682,2.682l-0.551,1.009l-0.552-1.009c-0.619-1.132-1.55-2.063-2.682-2.682l-1.008-0.552l1.008-0.552
				c1.132-0.619,2.063-1.55,2.682-2.682L316.63,151.06z"/>
		</g>
		<g>
			<path style="fill:#455A64;" d="M246.688,126.359l0.276,0.504c0.31,0.566,0.775,1.031,1.341,1.341l0.504,0.276l-0.504,0.276
				c-0.566,0.31-1.031,0.775-1.341,1.341l-0.276,0.504l-0.276-0.504c-0.309-0.566-0.775-1.031-1.341-1.341l-0.504-0.276l0.504-0.276
				c0.566-0.309,1.031-0.775,1.341-1.341L246.688,126.359z"/>
		</g>
		<g>
			<path style="fill:#455A64;" d="M535.273,142.431l0.276,0.504c0.31,0.566,0.775,1.031,1.341,1.341l0.504,0.276l-0.504,0.276
				c-0.566,0.31-1.031,0.775-1.341,1.341l-0.276,0.504l-0.276-0.504c-0.31-0.566-0.775-1.031-1.341-1.341l-0.504-0.276l0.504-0.276
				c0.566-0.31,1.031-0.775,1.341-1.341L535.273,142.431z"/>
		</g>
		<g>
			<path style="fill:#455A64;" d="M601.635,227.149l0.276,0.504c0.31,0.566,0.775,1.031,1.341,1.341l0.504,0.276l-0.504,0.276
				c-0.566,0.31-1.031,0.775-1.341,1.341l-0.276,0.504l-0.276-0.504c-0.31-0.566-0.775-1.031-1.341-1.341l-0.504-0.276l0.504-0.276
				c0.566-0.31,1.031-0.775,1.341-1.341L601.635,227.149z"/>
		</g>
		<g>
			<path style="fill:#455A64;" d="M514.073,433.493l0.276,0.504c0.31,0.566,0.775,1.031,1.341,1.341l0.504,0.276l-0.504,0.276
				c-0.566,0.309-1.031,0.775-1.341,1.341l-0.276,0.504l-0.276-0.504c-0.31-0.566-0.775-1.031-1.341-1.341l-0.504-0.276l0.504-0.276
				c0.566-0.31,1.031-0.775,1.341-1.341L514.073,433.493z"/>
		</g>
		<g>
			<path style="fill:#455A64;" d="M606.466,349.813l0.276,0.504c0.31,0.566,0.775,1.031,1.341,1.341l0.504,0.276l-0.504,0.276
				c-0.566,0.31-1.031,0.775-1.341,1.341l-0.276,0.504l-0.276-0.504c-0.31-0.566-0.775-1.031-1.341-1.341l-0.504-0.276l0.504-0.276
				c0.566-0.31,1.031-0.775,1.341-1.341L606.466,349.813z"/>
		</g>
		<g>
			<path style="fill:#455A64;" d="M391.603,373.583l0.276,0.504c0.31,0.566,0.775,1.031,1.341,1.341l0.504,0.276l-0.504,0.276
				c-0.566,0.309-1.031,0.775-1.341,1.341l-0.276,0.504l-0.276-0.504c-0.31-0.566-0.775-1.031-1.341-1.341l-0.504-0.276l0.504-0.276
				c0.566-0.31,1.031-0.775,1.341-1.341L391.603,373.583z"/>
		</g>
		<g>
			<path style="fill:#455A64;" d="M257.385,349.813l0.276,0.504c0.31,0.566,0.775,1.031,1.341,1.341l0.504,0.276l-0.504,0.276
				c-0.566,0.31-1.031,0.775-1.341,1.341l-0.276,0.504l-0.276-0.504c-0.309-0.566-0.775-1.031-1.341-1.341l-0.504-0.276l0.504-0.276
				c0.566-0.31,1.031-0.775,1.341-1.341L257.385,349.813z"/>
		</g>
		<g>
			<path style="fill:#455A64;" d="M70.724,224.928L71,225.432c0.309,0.566,0.775,1.031,1.341,1.341l0.504,0.276l-0.504,0.276
				c-0.566,0.309-1.031,0.775-1.341,1.341l-0.276,0.504l-0.276-0.504c-0.309-0.566-0.775-1.031-1.341-1.341l-0.504-0.276
				l0.504-0.276c0.566-0.31,1.031-0.775,1.341-1.341L70.724,224.928z"/>
		</g>
		<g>
			<path style="fill:#455A64;" d="M306.84,381.398l0.952,1.741c1.069,1.954,2.675,3.56,4.629,4.629l1.741,0.952l-1.741,0.952
				c-1.954,1.069-3.56,2.675-4.629,4.629l-0.952,1.741l-0.952-1.741c-1.069-1.954-2.675-3.561-4.629-4.629l-1.741-0.952l1.741-0.952
				c1.954-1.069,3.561-2.675,4.629-4.629L306.84,381.398z"/>
		</g>
		<g>
			<path style="fill:#455A64;" d="M490.734,194.293l0.952,1.741c1.069,1.954,2.675,3.561,4.629,4.629l1.741,0.952l-1.741,0.952
				c-1.954,1.069-3.56,2.675-4.629,4.629l-0.952,1.741l-0.952-1.741c-1.069-1.954-2.675-3.561-4.629-4.629l-1.741-0.952l1.741-0.952
				c1.954-1.069,3.561-2.675,4.629-4.629L490.734,194.293z"/>
		</g>
	</g>
</g>
<g id="Starman">
	<g>
		<g>
			<g>
				<g>
					<g>
						<path style="fill:#263238;" d="M590.189,396.229c-0.02,0.143-24.6-3.104-54.895-7.251
							c-30.305-4.148-54.849-7.625-54.829-7.768c0.02-0.142,24.595,3.104,54.9,7.252
							C565.66,392.609,590.209,396.087,590.189,396.229z"/>
					</g>
				</g>
			</g>
			<g>
				<g>
					<g>
						<path style="fill:#263238;" d="M237.268,179.406c-0.025,0.142-19.584-3.18-43.682-7.419
							c-24.106-4.24-43.621-7.791-43.596-7.933c0.025-0.142,19.58,3.18,43.686,7.42
							C217.773,175.713,237.293,179.265,237.268,179.406z"/>
					</g>
				</g>
			</g>
			<g>
				<g>
					<g>
						<path style="fill:#263238;" d="M182.762,159.693c-0.027,0.141-12.2-2.063-27.186-4.923
							c-14.991-2.861-27.117-5.294-27.09-5.435c0.027-0.141,12.197,2.063,27.188,4.923
							C170.66,157.118,182.789,159.552,182.762,159.693z"/>
					</g>
				</g>
			</g>
			<g>
				<g>
					<g>
						<path style="fill:#263238;" d="M613.166,407.98c-0.021,0.142-12.225-1.531-27.255-3.738
							c-15.036-2.207-27.203-4.111-27.182-4.254c0.021-0.142,12.222,1.531,27.258,3.738
							C601.017,405.933,613.187,407.838,613.166,407.98z"/>
					</g>
				</g>
			</g>
			<g>
				<g>
					<g>
						<g>
							<g>
								<path style="fill:#455A64;" d="M399.209,234.406c-0.872,0.777-26.867,3.865-26.867,3.865l-17.816-8.146l-6.253,7.079
									c0,0,20.979,11.683,23.23,11.963c2.251,0.279,18.329-1.545,18.329-1.545L399.209,234.406z"/>
							</g>
						</g>
						<g>
							<g>
								<g>
									<g>
										<g>
											<path style="fill:#263238;" d="M346.511,235.721l0.014-0.029c-2.393-0.798-5.031-1.735-6.41-2.412
												c-2.841-1.395-2.72-1.651-2.501-1.954c0.588-0.814,5.091,2.264,4.507,1.041c-0.584-1.222-5.945-3.125-5.296-3.95
												c0.846-1.077,5.501,2.233,5.916,2.484c0.403,0.244,0.792-0.34,0.406-0.546c-0.556-0.297-6.314-3.56-5.493-4.625
												c0.455-0.59,1.439,0.326,1.439,0.326s5.163,3.45,5.534,2.934c0.377-0.523-2.586-2.651-3.636-3.298
												c-1.038-0.639-1.155-1.392-0.491-1.617c0.453-0.153,3.715,1.752,4.738,2.415c1.023,0.664,3.797,2.534,3.18,0.5
												c-0.617-2.035-0.325-3.831,0.092-4.262c0.417-0.431,1.169-0.008,1.079,0.646c-0.073,0.529,0.079,1.447,0.221,2.132
												c0.118,0.566,0.327,1.109,0.626,1.602c0.35,0.575,0.668,1.048,0.95,1.444c0,0,0.8,1.038,0.552,2.177
												c-0.248,1.139-3.933,5.393-3.933,5.393L346.511,235.721z"/>
										</g>
									</g>
								</g>
							</g>
							<g>
								<g>
									<path style="fill:#263238;" d="M354.26,230.536l-5.349,6.705c-0.344,0.432-0.951,0.551-1.433,0.282l-0.042-0.023
										c-0.611-0.341-0.768-1.15-0.329-1.695l5.39-6.682c0.325-0.403,0.883-0.533,1.353-0.316l0,0
										C354.516,229.114,354.716,229.964,354.26,230.536z"/>
								</g>
							</g>
						</g>
						<g>
							<g>
								<g>
									<path style="fill:#263238;" d="M371.44,249.158c-0.057-0.063,0.429-0.511,1.004-1.377c0.575-0.856,1.201-2.182,1.352-3.746
										c0.15-1.564-0.211-2.986-0.612-3.936c-0.399-0.96-0.79-1.493-0.723-1.543c0.044-0.039,0.549,0.421,1.056,1.388
										c0.507,0.953,0.958,2.461,0.797,4.141c-0.162,1.68-0.892,3.074-1.572,3.912
										C372.059,248.849,371.475,249.204,371.44,249.158z"/>
								</g>
							</g>
						</g>
						<g>
							<g>
								<g>
									<path style="fill:#263238;" d="M350.331,235.067c0.018-0.031,0.348,0.124,0.929,0.431c0.679,0.369,1.493,0.812,2.442,1.328
										c2.177,1.187,4.963,2.707,8.045,4.388c3.107,1.636,5.916,3.114,8.11,4.269c0.955,0.504,1.774,0.937,2.458,1.298
										c0.577,0.314,0.889,0.503,0.873,0.535c-0.016,0.032-0.357-0.095-0.962-0.352c-0.605-0.257-1.471-0.65-2.533-1.15
										c-2.125-1.001-5.032-2.447-8.193-4.14c-3.159-1.694-5.973-3.313-7.983-4.528c-1.005-0.608-1.812-1.111-2.361-1.472
										C350.608,235.312,350.313,235.098,350.331,235.067z"/>
								</g>
							</g>
						</g>
						<g>
							<g>
								<g>
									<path style="fill:#263238;" d="M373.16,247.026c-0.018-0.143,3.396-0.684,7.624-1.209c4.23-0.525,7.672-0.835,7.689-0.692
										s-3.396,0.684-7.625,1.209C376.621,246.859,373.178,247.169,373.16,247.026z"/>
								</g>
							</g>
						</g>
					</g>
					<g>
						<g>
							<path style="fill:#455A64;" d="M342.888,236.434l-0.737,0.235c-1.029,0.328-2.13-0.241-2.458-1.27l-3.291-10.327
								c-0.328-1.029,0.241-2.13,1.27-2.458l0.737-0.235c1.029-0.328,2.13,0.24,2.458,1.27l3.291,10.327
								C344.486,235.005,343.918,236.106,342.888,236.434z"/>
						</g>
					</g>
					<g>
						<g>
							<path style="fill:#263238;" d="M415.379,251.454l7.118,1.185c3.041,0.506,6.02-1.191,7.135-4.066l7.094-18.296
								c1.492-3.847-0.928-8.092-4.997-8.77l-0.917-0.153c-6.653-1.108-13.171,2.606-15.609,8.895l-4.822,12.434
								C408.89,246.53,411.309,250.776,415.379,251.454z"/>
						</g>
					</g>
					<g>
						<g>
							<g>
								<path style="fill:#263238;" d="M411.692,201.905c-3.316-1.936-6.093,0.533-6.118,3.273c-0.008,0.88,0.194,1.241-0.237,1.477
									c-0.277,0.153-1.036,0.207-1.277,0.412c-0.632,0.537-0.961,1.307-0.956,1.799c0.017,1.732,1.365,2.858,2.286,4.325"/>
							</g>
						</g>
						<g>
							<g>
								<g>
									<g>
										<path style="fill:#263238;" d="M415.154,202.082c-1.511-0.51-3.307-0.03-4.362,1.167c-0.386,0.438-0.685,0.998-0.638,1.58
											c0.057,0.698,0.612,1.278,1.255,1.556c0.643,0.278,1.363,0.306,2.063,0.3c0.986-0.008,2.078-0.123,2.744-0.85
											c0.654-0.713,0.673-1.872,0.177-2.702c-0.496-0.831-1.418-1.346-2.371-1.517"/>
									</g>
								</g>
							</g>
							<g>
								<g>
									<g>
										<g>
											<g>
												<g>
													<g>
														<g>
															<g>
																<g>
																	<path style="fill:#FFBE9D;" d="M411.825,236.148L411.825,236.148c-3.416-0.449-5.692-3.757-4.89-7.107
																		c0.436-1.821,0.798-3.303,0.798-3.303s-4.457-1.305-3.916-5.861c0.304-2.561,1.127-6.716,1.789-9.866
																		c0.56-2.664,2.464-4.842,5.029-5.753l0,0c5.563-1.572,7.426,0.711,11.509,4.803l0.606,0.608l-4.482,21.889
																		C417.657,234.54,414.845,236.544,411.825,236.148z"/>
																</g>
															</g>
														</g>
													</g>
												</g>
												<g>
													<g>
														<g>
															<g>
																<g>
																	<g>
																		<path style="fill:#263238;" d="M406.506,213.022c0.302-0.21,0.378-0.625,0.168-0.927
																			c-0.21-0.303-0.625-0.378-0.927-0.168c-0.302,0.21-0.378,0.625-0.168,0.927
																			C405.789,213.156,406.204,213.232,406.506,213.022z"/>
																	</g>
																</g>
															</g>
														</g>
													</g>
													<g>
														<g>
															<g>
																<g>
																	<g>
																		<g>
																			<path style="fill:#263238;" d="M405.641,211.655c0.061,0.088,0.553-0.197,1.18-0.118
																				c0.628,0.07,1.039,0.463,1.119,0.391c0.039-0.031-0.014-0.183-0.192-0.36c-0.175-0.176-0.49-0.364-0.882-0.411
																				c-0.391-0.047-0.742,0.063-0.953,0.192C405.697,211.48,405.611,211.615,405.641,211.655z"/>
																		</g>
																	</g>
																</g>
															</g>
														</g>
													</g>
												</g>
												<g>
													<g>
														<g>
															<g>
																<g>
																	<g>
																		<path style="fill:#263238;" d="M412.322,213.13c-0.336,0.15-0.486,0.544-0.336,0.88
																			c0.15,0.336,0.544,0.486,0.88,0.336c0.336-0.15,0.486-0.544,0.336-0.88
																			C413.052,213.13,412.658,212.98,412.322,213.13z"/>
																	</g>
																</g>
															</g>
														</g>
													</g>
													<g>
														<g>
															<g>
																<g>
																	<g>
																		<g>
																			<path style="fill:#263238;" d="M412.18,212.982c0.061,0.088,0.553-0.197,1.18-0.118
																				c0.628,0.07,1.039,0.463,1.119,0.391c0.039-0.031-0.014-0.183-0.192-0.36c-0.175-0.175-0.49-0.364-0.882-0.411
																				c-0.391-0.046-0.742,0.063-0.953,0.192C412.236,212.808,412.15,212.943,412.18,212.982z"/>
																		</g>
																	</g>
																</g>
															</g>
														</g>
													</g>
												</g>
												<g>
													<g>
														<g>
															<g>
																<g>
																	<g>
																		<path style="fill:#263238;" d="M409.115,218.033c0.011-0.048-0.366-0.178-0.985-0.348
																			c-0.162-0.039-0.285-0.093-0.286-0.183c-0.016-0.103,0.07-0.27,0.179-0.454c0.216-0.393,0.434-0.791,0.663-1.208
																			c0.923-1.724,1.6-3.159,1.512-3.206c-0.087-0.047-0.906,1.312-1.829,3.036c-0.22,0.422-0.43,0.824-0.638,1.221
																			c-0.085,0.182-0.228,0.388-0.179,0.669c0.027,0.141,0.143,0.256,0.248,0.299c0.104,0.047,0.197,0.059,0.275,0.073
																			C408.707,218.04,409.104,218.082,409.115,218.033z"/>
																	</g>
																</g>
															</g>
														</g>
													</g>
												</g>
												<g>
													<g>
														<g>
															<g>
																<g>
																	<path style="fill:#EB996E;" d="M407.734,225.67c0,0,2.844,0.611,6.152-0.907c0,0-1.832,3.09-6.318,2.084
																		L407.734,225.67z"/>
																</g>
															</g>
														</g>
													</g>
												</g>
											</g>
										</g>
										<g>
											<g>
												<g>
													<g>
														<g>
															<g>
																<path style="fill:#FFBE9D;" d="M421.59,214.405c0.096-0.016,3.758,0.313,2.498,3.665
																	c-1.089,2.898-4.128,1.337-4.106,1.236C420.003,219.206,421.59,214.405,421.59,214.405z"/>
															</g>
														</g>
													</g>
												</g>
											</g>
											<g>
												<g>
													<g>
														<g>
															<g>
																<g>
																	<path style="fill:#EB996E;" d="M421.502,218.24c0.016-0.006,0.041,0.05,0.116,0.113
																		c0.073,0.062,0.211,0.129,0.379,0.114c0.341-0.027,0.739-0.446,0.9-0.97c0.082-0.265,0.097-0.534,0.061-0.771
																		c-0.03-0.239-0.126-0.428-0.275-0.499c-0.145-0.079-0.281-0.017-0.34,0.056c-0.062,0.071-0.06,0.135-0.077,0.135
																		c-0.01,0.005-0.049-0.066,0.008-0.181c0.028-0.055,0.082-0.114,0.167-0.151c0.086-0.038,0.198-0.038,0.303,0.004
																		c0.221,0.079,0.367,0.343,0.406,0.603c0.052,0.264,0.041,0.569-0.051,0.866c-0.183,0.585-0.64,1.053-1.097,1.058
																		c-0.221-0.004-0.376-0.114-0.445-0.208C421.487,218.313,421.49,218.243,421.502,218.24z"/>
																</g>
															</g>
														</g>
													</g>
												</g>
											</g>
										</g>
									</g>
								</g>
							</g>
							<g>
								<g>
									<g>
										<path style="fill:#263238;" d="M418.324,214.166c-0.075,0.328,0.09,0.669,0.314,0.92c0.224,0.252,0.507,0.445,0.738,0.69
											c0.364,0.385,0.592,0.898,0.634,1.426c0.018,0.23,0.003,0.467,0.072,0.688c0.069,0.221,0.255,0.428,0.486,0.429
											c0.365,0,0.526-0.453,0.584-0.814c0.245-1.509,0.49-3.018,0.735-4.526l-3.648-1.593l0.215,2.558"/>
									</g>
								</g>
							</g>
							<g>
								<g>
									<g>
										<g>
											<path style="fill:#263238;" d="M410.742,202.957c0.681-0.173,1.48-0.136,1.635,0.55c0.154,0.686-0.079,1.395-0.349,2.044
												c-0.27,0.649-0.586,1.303-0.606,2.006c-0.025,0.885,0.47,1.765,1.238,2.203c0.769,0.438,1.778,0.417,2.527-0.055
												c-0.037,0.955-0.071,1.932,0.213,2.844c0.284,0.913,0.951,1.765,1.876,2.002c0.926,0.237,2.057-0.352,2.174-1.301
												c0.188,0.614,0.513,1.21,1.034,1.583c0.522,0.374,1.268,0.477,1.809,0.133c0.542-0.344,0.743-1.182,0.32-1.665
												c0.305,0.799,1.123,1.396,1.978,1.366c0.855-0.03,1.656-0.737,1.722-1.59c0.066-0.852-0.683-1.701-1.538-1.677
												c0.56,0.044,1.153,0.083,1.657-0.167c0.503-0.25,0.853-0.902,0.578-1.392c-0.33-0.589-1.192-0.513-1.803-0.803
												c-0.995-0.473-1.143-1.785-1.464-2.839c-0.58-1.906-2.13-3.426-3.944-4.247c-1.814-0.821-3.869-0.999-5.852-0.812
												C412.65,201.262,411.147,201.719,410.742,202.957"/>
										</g>
									</g>
								</g>
							</g>
							<g>
								<g>
									<g>
										<g>
											<path style="fill:#263238;" d="M407.975,210.721c-0.181,0.264-0.592,0.297-0.973,0.206
												c-0.379-0.1-0.725-0.324-0.759-0.642c-0.039-0.311,0.441-0.62,1.039-0.47
												C407.88,209.965,408.157,210.465,407.975,210.721z"/>
										</g>
									</g>
								</g>
							</g>
							<g>
								<g>
									<g>
										<g>
											<path style="fill:#263238;" d="M414.321,211.867c-0.235,0.22-0.667,0.15-1.092,0.073c-0.42-0.1-0.844-0.209-0.971-0.504
												c-0.051-0.146,0.027-0.333,0.249-0.476c0.217-0.143,0.578-0.221,0.957-0.142c0.379,0.079,0.678,0.296,0.82,0.514
												C414.43,211.551,414.427,211.753,414.321,211.867z"/>
										</g>
									</g>
								</g>
							</g>
							<g>
								<g>
									<g>
										<g>
											<path style="fill:#263238;" d="M411.728,218.338c0.1,0.024-0.137,0.773-0.925,1.233
												c-0.784,0.467-1.554,0.312-1.527,0.213c0.004-0.111,0.666-0.139,1.332-0.542
												C411.284,218.854,411.629,218.288,411.728,218.338z"/>
										</g>
									</g>
								</g>
							</g>
						</g>
						<g>
							<g>
								<g>
									<path style="fill:#455A64;" d="M426.061,244.46c-3.014,10.759-8.077,28.346-10.001,32.169l-34.36-8.761l7.304-22.527
										c2.202-6.79,7.565-12.149,14.421-14.137c0.073-0.021,0.147-0.042,0.221-0.063c4.53-1.277,10.359-0.623,15.706,0.964
										C424.585,233.657,427.534,239.203,426.061,244.46z"/>
								</g>
							</g>
							<g>
								<g>
									<g>
										<path style="fill:#263238;" d="M383.02,263.794c0.003-0.015,0.171,0.003,0.49,0.05c0.366,0.06,0.829,0.136,1.4,0.229
											c1.276,0.23,3.033,0.546,5.209,0.937c2.237,0.419,4.898,0.917,7.893,1.477c1.506,0.286,3.095,0.588,4.755,0.904
											c0.415,0.079,0.835,0.16,1.26,0.241c0.378,0.062,0.732-0.034,1.025-0.294c0.582-0.518,0.917-1.393,1.1-2.226l0.005-0.023
											l0.005-0.013c0.876-2.545,1.743-5.292,2.544-8.149c0.632-2.251,1.194-4.464,1.689-6.613
											c0.438-2.146,1.12-4.24,0.895-6.186c-0.117-0.966-0.559-1.83-1.238-2.452c-0.673-0.629-1.492-1.065-2.301-1.434
											c-1.633-0.73-3.225-1.255-4.71-1.592c-2.974-0.691-5.473-0.721-7.176-0.648c-0.854,0.044-1.516,0.108-1.964,0.157
											c-0.448,0.052-0.686,0.071-0.689,0.053c-0.003-0.018,0.229-0.071,0.674-0.157c0.445-0.083,1.107-0.18,1.966-0.256
											c1.712-0.136,4.241-0.164,7.27,0.491c1.513,0.319,3.136,0.831,4.807,1.557c0.831,0.37,1.694,0.812,2.437,1.494
											c0.751,0.67,1.271,1.67,1.4,2.721c0.143,1.053,0.009,2.125-0.19,3.176c-0.206,1.051-0.438,2.108-0.682,3.188
											c-0.49,2.158-1.05,4.38-1.685,6.639c-0.804,2.868-1.68,5.623-2.57,8.174l0.01-0.036c-0.218,0.926-0.538,1.835-1.28,2.51
											c-0.366,0.337-0.934,0.489-1.411,0.396c-0.424-0.084-0.844-0.167-1.26-0.249c-1.66-0.33-3.249-0.646-4.754-0.945
											c-2.991-0.604-5.648-1.14-7.882-1.59c-2.166-0.453-3.915-0.818-5.185-1.084c-0.565-0.127-1.022-0.23-1.384-0.312
											C383.179,263.856,383.017,263.809,383.02,263.794z"/>
									</g>
								</g>
							</g>
							<g style="opacity:0.7;">
								<g>
									<g>
										<path style="fill:#FFFFFF;" d="M403.769,246.917c0.176,0.811,0.976,1.325,1.787,1.148c0.81-0.176,1.324-0.976,1.148-1.787
											c-0.176-0.811-0.976-1.325-1.787-1.148C404.107,245.306,403.593,246.106,403.769,246.917z"/>
									</g>
								</g>
							</g>
							<g style="opacity:0.7;">
								<g>
									<g>
										<path style="fill:#FFFFFF;" d="M402.204,253.854c0.176,0.811,0.976,1.325,1.787,1.148c0.81-0.176,1.324-0.976,1.148-1.787
											s-0.976-1.325-1.787-1.148C402.542,252.243,402.028,253.043,402.204,253.854z"/>
									</g>
								</g>
							</g>
							<g style="opacity:0.7;">
								<g>
									<g>
										<path style="fill:#FFFFFF;" d="M400.013,260.75c0.176,0.81,0.976,1.324,1.787,1.148c0.81-0.176,1.324-0.976,1.148-1.787
											c-0.176-0.811-0.976-1.325-1.787-1.148C400.351,259.139,399.837,259.939,400.013,260.75z"/>
									</g>
								</g>
							</g>
							<g>
								<g>
									<g>
										<path style="fill:#263238;" d="M393.316,243.949c0.036-0.139,1.921,0.146,4.21,0.638c2.29,0.492,4.125,1.005,4.101,1.147
											c-0.024,0.142-1.909-0.144-4.21-0.638C395.116,244.602,393.28,244.088,393.316,243.949z"/>
									</g>
								</g>
							</g>
							<g>
								<g>
									<g>
										<path style="fill:#263238;" d="M390.836,250.978c0.019-0.14,2.108,0.032,4.641,0.526c2.534,0.491,4.535,1.115,4.5,1.251
											c-0.036,0.142-2.081-0.252-4.6-0.74C392.86,251.524,390.815,251.124,390.836,250.978z"/>
									</g>
								</g>
							</g>
							<g>
								<g>
									<g>
										<path style="fill:#263238;" d="M389.986,258.387c0.026-0.141,1.737,0.088,3.821,0.512
											c2.085,0.424,3.749,0.882,3.718,1.022c-0.031,0.14-1.742-0.089-3.822-0.512
											C391.624,258.987,389.96,258.529,389.986,258.387z"/>
									</g>
								</g>
							</g>
							<g>
								<g>
									<path style="fill:#455A64;" d="M420.299,232.486c0,0,0.18-1.342-1.346-2.131c-1.526-0.789-12.27-1.105-12.27-1.105
										s-2.886,0.199-3.26,1.952L420.299,232.486z"/>
								</g>
							</g>
							<g>
								<g>
									<g>
										<path style="fill:#263238;" d="M403.774,231.623c0.032-0.073,0.859,0.284,2.289,0.415
											c1.425,0.118,3.444,0.189,5.646,0.297c2.207,0.094,4.202,0.088,5.645,0.014c1.443-0.068,2.335-0.171,2.348-0.092
											c0.011,0.063-0.866,0.296-2.319,0.46c-1.451,0.169-3.474,0.235-5.696,0.139c-2.223-0.11-4.214-0.236-5.674-0.452
											C404.549,232.171,403.739,231.677,403.774,231.623z"/>
									</g>
								</g>
							</g>
							<g>
								<g>
									<g>
										<path style="fill:#263238;" d="M416.489,232.438c-0.128-0.074,0.058-0.615-0.037-1.272
											c-0.074-0.66-0.39-1.136-0.285-1.241c0.083-0.116,0.695,0.322,0.802,1.175
											C417.081,231.951,416.599,232.529,416.489,232.438z"/>
									</g>
								</g>
							</g>
							<g>
								<g>
									<g>
										<path style="fill:#263238;" d="M412.706,232.814c-0.121-0.088,0.195-0.691,0.263-1.488
											c0.087-0.796-0.107-1.448,0.029-1.511c0.116-0.077,0.587,0.602,0.49,1.562
											C413.398,232.336,412.806,232.912,412.706,232.814z"/>
									</g>
								</g>
							</g>
							<g>
								<g>
									<g>
										<path style="fill:#263238;" d="M408.503,232.187c-0.138,0.017-0.307-0.704-0.029-1.543
											c0.273-0.841,0.837-1.321,0.937-1.226c0.115,0.095-0.208,0.655-0.443,1.388
											C408.723,231.536,408.651,232.178,408.503,232.187z"/>
									</g>
								</g>
							</g>
						</g>
						<g>
							<g>
								<g>
									<g>
										<path style="fill:#263238;" d="M394.592,213.277c-0.009,0.001-0.027-0.105-0.055-0.314
											c-0.028-0.238-0.065-0.546-0.11-0.932c-0.056-0.41-0.103-0.919-0.085-1.524c-0.003-0.604-0.023-1.303,0.086-2.084
											c0.108-1.568,0.542-3.469,1.376-5.541c0.844-2.066,2.181-4.294,4.16-6.31c1.974-1.999,4.574-3.836,7.737-4.886
											c3.143-1.027,6.802-1.456,10.47-0.64c1.837,0.355,3.658,1.029,5.376,1.966c0.88,0.436,1.681,1.023,2.51,1.581
											c0.769,0.639,1.569,1.258,2.26,2.01c2.89,2.881,4.855,6.844,5.499,11.118c0.276,2.146,0.227,4.301-0.137,6.374
											c-0.34,2.082-1.111,4.041-2.057,5.837c-0.456,0.914-1.052,1.732-1.614,2.559c-0.641,0.767-1.247,1.553-1.973,2.217
											c-1.391,1.377-2.953,2.531-4.62,3.382c-3.297,1.803-6.932,2.406-10.237,2.292c-3.33-0.131-6.339-1.174-8.79-2.547
											c-2.461-1.388-4.364-3.157-5.748-4.907c-1.376-1.76-2.321-3.465-2.86-4.941c-0.321-0.719-0.495-1.397-0.661-1.978
											c-0.185-0.576-0.281-1.078-0.341-1.488c-0.063-0.384-0.114-0.689-0.153-0.926
											C394.595,213.385,394.583,213.278,394.592,213.277c0.009-0.001,0.038,0.104,0.087,0.309
											c0.052,0.233,0.119,0.534,0.203,0.913c0.076,0.404,0.188,0.899,0.387,1.466c0.18,0.572,0.367,1.238,0.699,1.944
											c0.562,1.449,1.521,3.118,2.899,4.835c1.385,1.708,3.275,3.427,5.701,4.769c2.418,1.327,5.371,2.327,8.629,2.437
											c3.234,0.092,6.783-0.512,9.993-2.284c1.623-0.835,3.143-1.965,4.496-3.312c0.706-0.648,1.294-1.417,1.918-2.165
											c0.545-0.808,1.125-1.605,1.568-2.498c1.921-3.484,2.682-7.721,2.128-11.897c-0.629-4.164-2.536-8.022-5.348-10.835
											c-0.672-0.734-1.451-1.339-2.199-1.964c-0.807-0.545-1.586-1.121-2.444-1.547c-1.673-0.918-3.446-1.582-5.237-1.934
											c-3.574-0.811-7.152-0.407-10.233,0.579c-3.1,1.009-5.659,2.79-7.613,4.736c-1.959,1.962-3.297,4.139-4.154,6.164
											c-0.847,2.032-1.306,3.902-1.443,5.45c-0.123,0.77-0.119,1.463-0.133,2.062c-0.034,0.6-0.004,1.107,0.035,1.516
											c0.024,0.387,0.044,0.695,0.059,0.934C394.6,213.167,394.601,213.275,394.592,213.277z"/>
									</g>
								</g>
							</g>
							<g>
								<g>
									<g>
										<path style="fill:#455A64;" d="M400.532,202.847c-0.048-0.026,0.378-0.939,1.368-2.223
											c0.984-1.283,2.596-2.887,4.709-4.194c2.118-1.3,4.276-2.019,5.864-2.321c1.592-0.308,2.599-0.277,2.601-0.223
											c0.008,0.089-0.981,0.189-2.519,0.582c-1.537,0.388-3.612,1.141-5.673,2.406c-2.055,1.272-3.661,2.787-4.698,3.986
											C401.142,202.056,400.608,202.894,400.532,202.847z"/>
									</g>
								</g>
							</g>
							<g>
								<g>
									<g>
										<path style="fill:#455A64;" d="M399.592,206.128c-0.14,0.012-0.283-0.517-0.091-1.138c0.189-0.621,0.605-0.978,0.714-0.89
											c0.118,0.088-0.059,0.518-0.216,1.043C399.834,205.665,399.739,206.121,399.592,206.128z"/>
									</g>
								</g>
							</g>
						</g>
					</g>
					<g>
						<g>
							<g>
								<path style="fill:#455A64;" d="M482.559,268.932l7.118,1.185c3.041,0.507,6.02-1.191,7.135-4.066l7.094-18.296
									c1.492-3.846-0.928-8.092-4.997-8.77l-0.917-0.153c-6.653-1.108-13.171,2.606-15.609,8.895l-4.822,12.434
									C476.07,264.009,478.49,268.254,482.559,268.932z"/>
							</g>
						</g>
						<g>
							<g>
								<path style="fill:#E8505B;" d="M611.71,298.43l7.272,10.953l0,0c-2.159,12.962-11.622,23.504-24.277,27.043l-42.291,11.828
									l-28.617,0.083L158.23,290.491l-22.247-7.965c-10.727-3.84-17.168-14.808-15.296-26.048l2.647-15.895
									c0.407-2.442,2.341-4.343,4.79-4.707l1.7-0.253c0,0,3.726-15.414,13.688-17.522c36.586-9.587,90.255-6.396,148.106-0.075
									l38.461-11.935c18.05-5.601,36.728-8.627,55.498-9.103c1.44,1.853,2.942,3.624,4.084,5.285
									c0.154,0.223,0.304,0.453,0.454,0.683c-19.179-0.207-38.098,2.485-57.054,8.508l-38.639,14.761l195.01,25.693l0-0.001
									c-0.425-5.371,4.242-9.747,9.557-8.862l45.707,7.611l6.54,6.444l49.923,10.815
									C605.582,268.844,615.818,275.682,611.71,298.43"/>
							</g>
						</g>
						<g>
							<g>
								<path style="fill:#263238;" d="M333.059,211.465c16.938-5.382,33.852-8.048,50.944-8.416
									c-2.318,3.139,2.422,6.251,2.493,6.784l-1.974,1.979c-14.201,0.099-28.229,2.255-42.286,6.722l-27.016,10.321l-20.799-2.628
									L333.059,211.465z"/>
							</g>
						</g>
						<g>
							<g>
								<g>
									<path style="fill:#EBEBEB;" d="M141.298,236.291l-11.14-1.855c0.891-2.944,3.669-10.714,9.119-14.474l14.663,2.442
										c2.691,0.448,3.868,3.656,2.107,5.739l-3.353,3.965C149.899,235.413,145.569,237.002,141.298,236.291z"/>
								</g>
							</g>
							<g>
								<g>
									<path style="fill:#E0E0E0;" d="M142.752,235.826c1.907-4.743,4.35-10.98,9.018-13.784l2.17,0.361
										c2.691,0.448,3.868,3.656,2.107,5.739l-3.353,3.964c-2.531,2.993-6.32,4.56-10.184,4.306
										C142.591,236.216,142.672,236.027,142.752,235.826z"/>
								</g>
							</g>
						</g>
						<g>
							<g style="opacity:0.7;">
								<g>
									<path d="M243.238,303.976c1.999-5.422,3.2-11.268,3.41-17.348c0.874-25.223-12.653-45.524-37.116-49.598
										c-21.289-3.545-40.939,7.113-48.287,31.258c-2.199,7.225-3.042,14.844-2.618,22.266L243.238,303.976z"/>
								</g>
							</g>
							<g style="opacity:0.7;">
								<g>
									<path d="M552.415,348.255c0.104-0.919,0.169-1.86,0.303-2.832c4.31-31.347-13.383-56.199-38.288-60.347
										c-22.751-3.789-44.346,11.64-48.135,34.392c-1.156,6.944-2.486,13.447-2.538,19.346l60.04,9.524L552.415,348.255z"/>
								</g>
							</g>
						</g>
						<g>
							<g>
								<g>
									
										<ellipse transform="matrix(0.0623 -0.9981 0.9981 0.0623 150.2482 812.5938)" style="fill:#263238;" cx="507.558" cy="326.34" rx="36.449" ry="36.449"/>
								</g>
							</g>
							<g>
								<g>
									<path style="fill:#263238;" d="M471.625,320.261c-0.006,0.031-0.015,0.061-0.02,0.092
										c-3.307,19.856,10.11,38.634,29.966,41.941c19.857,3.307,38.634-10.11,41.941-29.966c0.005-0.031,0.006-0.062,0.011-0.094
										L471.625,320.261z"/>
								</g>
							</g>
							<g>
								<g>
									<path style="fill:#FAFAFA;" d="M482.317,322.137c-2.322,13.941,7.097,27.124,21.038,29.445
										c13.941,2.322,27.124-7.098,29.446-21.038c2.321-13.941-7.098-27.124-21.039-29.445
										C497.821,298.777,484.638,308.196,482.317,322.137z"/>
								</g>
							</g>
							<g>
								<g>
									<path style="fill:#E0E0E0;" d="M511.762,301.098c-13.941-2.322-27.123,7.098-29.445,21.038l50.484,8.407
										C535.122,316.603,525.703,303.42,511.762,301.098z"/>
								</g>
							</g>
							<g>
								<g>
									<path style="fill:#455A64;" d="M492.182,323.78c-1.414,8.492,4.323,16.522,12.815,17.937
										c8.492,1.414,16.523-4.323,17.937-12.815s-4.324-16.523-12.816-17.937C501.627,309.55,493.597,315.287,492.182,323.78z"/>
								</g>
							</g>
						</g>
						<g>
							<g>
								<g>
									
										<ellipse transform="matrix(0.1476 -0.989 0.989 0.1476 -104.5554 441.0152)" style="fill:#263238;" cx="203.577" cy="281.165" rx="36.448" ry="36.449"/>
								</g>
							</g>
							<g>
								<g>
									<path style="fill:#263238;" d="M167.644,275.086c-0.006,0.031-0.015,0.061-0.02,0.092
										c-3.307,19.856,10.11,38.634,29.966,41.941c19.857,3.307,38.634-10.11,41.941-29.966c0.005-0.031,0.006-0.062,0.011-0.094
										L167.644,275.086z"/>
								</g>
							</g>
							<g>
								<g>
									<path style="fill:#FAFAFA;" d="M178.336,276.962c-2.321,13.941,7.097,27.124,21.038,29.445
										c13.941,2.322,27.124-7.098,29.446-21.039c2.322-13.941-7.098-27.124-21.039-29.445
										C193.84,253.602,180.657,263.021,178.336,276.962z"/>
								</g>
							</g>
							<g>
								<g>
									<path style="fill:#E0E0E0;" d="M207.781,255.924c-13.941-2.322-27.123,7.098-29.445,21.038l50.484,8.407
										C231.141,271.428,221.722,258.245,207.781,255.924z"/>
								</g>
							</g>
							<g>
								<g>
									<path style="fill:#263238;" d="M188.202,278.605c-1.414,8.492,4.324,16.522,12.815,17.936
										c8.492,1.414,16.523-4.323,17.937-12.815c1.414-8.492-4.324-16.523-12.816-17.937
										C197.646,264.375,189.616,270.113,188.202,278.605z"/>
								</g>
							</g>
						</g>
						<g>
							<g>
								<polygon style="fill:#E8505B;" points="319.26,229.499 294.42,226.226 317.189,217.527 								"/>
							</g>
						</g>
						<g style="opacity:0.3;">
							<g>
								<polygon points="319.26,229.499 294.42,226.226 317.189,217.527 								"/>
							</g>
						</g>
						<g>
							<g>
								<g>
									<path style="fill:#E8505B;" d="M328.792,234.475l-10.268-1.71c-1.491-0.248-2.262-3.08-1.722-6.325l0,0
										c0.483-2.901,1.867-5.205,3.258-5.425l11.269-1.781L328.792,234.475z"/>
								</g>
							</g>
						</g>
						<g style="opacity:0.4;">
							<g>
								<path d="M135.121,262.329c-0.671,4.028-3.206,6.962-5.662,6.553c-2.456-0.409-3.904-4.007-3.233-8.035
									c0.671-4.029,3.206-6.963,5.662-6.553C134.345,254.703,135.792,258.3,135.121,262.329z"/>
							</g>
						</g>
						<g>
							<g>
								<g>
									<path style="fill:#263238;" d="M611.71,298.43c-0.003,0.018-0.245,0.001-0.704-0.046c-0.51-0.059-1.175-0.136-2.004-0.233
										c-1.738-0.218-4.25-0.546-7.362-0.889c-3.109-0.365-6.818-0.733-10.942-1.021c-4.123-0.251-8.677-0.452-13.417-0.057
										c-2.363,0.226-4.663,0.585-6.794,1.249c-2.138,0.651-4.06,1.643-5.842,2.683c-3.606,2.012-6.457,4.429-8.998,6.27
										c-2.521,1.872-4.739,3.159-6.363,3.841c-0.812,0.338-1.455,0.571-1.904,0.686c-0.445,0.127-0.68,0.185-0.685,0.167
										c-0.017-0.055,0.924-0.304,2.506-1.038c1.583-0.733,3.745-2.05,6.226-3.951c2.496-1.867,5.346-4.332,8.977-6.39
										c1.783-1.056,3.749-2.083,5.93-2.754c2.176-0.686,4.511-1.052,6.901-1.281c4.791-0.398,9.363-0.18,13.497,0.097
										c4.135,0.315,7.847,0.723,10.953,1.134c3.11,0.39,5.616,0.774,7.346,1.054c0.823,0.136,1.484,0.246,1.991,0.329
										C611.475,298.361,611.713,298.413,611.71,298.43z"/>
								</g>
							</g>
						</g>
						<g style="opacity:0.5;">
							<g>
								<g>
									<path style="fill:#FFFFFF;" d="M551.158,348.718c0,0,0.159-0.081,0.478-0.215c0.317-0.138,0.779-0.364,1.355-0.711
										c1.131-0.708,2.716-1.998,4.044-4.189c1.357-2.165,2.295-5.228,2.535-8.851c0.233-3.622,0.029-7.788-0.573-12.322
										c-0.628-4.531-1.77-9.448-3.74-14.456c-1.981-4.993-4.818-10.073-8.735-14.68c-3.901-4.596-8.875-8.747-14.82-11.562
										c-5.929-2.83-12.684-4.408-19.648-4.719c-6.969-0.326-13.821,0.462-20.188,2.103c-6.356,1.656-12.246,4.35-16.953,8.138
										c-4.756,3.737-8.291,8.397-10.964,13.047c-2.681,4.667-4.519,9.366-5.925,13.72c-0.69,2.184-1.283,4.285-1.774,6.29
										c-0.509,2-0.919,3.905-1.111,5.707c-0.429,3.595,0.277,6.829,1.842,8.858c1.497,2.085,3.409,2.994,4.697,3.281
										c1.322,0.256,2.041,0.073,2.04,0.122c0,0-0.174,0.032-0.521,0.069c-0.346,0.033-0.868,0.023-1.541-0.088
										c-1.316-0.258-3.286-1.155-4.839-3.264c-1.626-2.053-2.378-5.368-1.968-9.008c0.181-1.827,0.581-3.748,1.079-5.757
										c0.48-2.014,1.063-4.126,1.745-6.323c1.39-4.379,3.216-9.111,5.902-13.823c1.347-2.349,2.899-4.694,4.716-6.943
										c1.825-2.241,3.935-4.364,6.324-6.265c4.759-3.847,10.714-6.579,17.122-8.256c6.419-1.661,13.312-2.458,20.342-2.13
										c7.022,0.314,13.847,1.909,19.843,4.779c6.015,2.855,11.038,7.063,14.966,11.712c3.945,4.66,6.792,9.794,8.771,14.832
										c1.967,5.053,3.094,10.006,3.703,14.565c0.582,4.565,0.762,8.739,0.499,12.394c-0.27,3.653-1.25,6.757-2.653,8.936
										c-1.374,2.204-3.002,3.486-4.162,4.172C551.862,348.556,551.158,348.718,551.158,348.718z"/>
								</g>
							</g>
						</g>
						<g>
							<g>
								<g>
									<path style="fill:none;stroke:#839198;stroke-miterlimit:10;" d="M482.698,330.736"/>
								</g>
							</g>
						</g>
						<g>
							<g>
								<g>
									<path style="fill:#263238;" d="M273.899,298.976c-0.018-0.002-0.003-0.284,0.04-0.819c0.054-0.582,0.126-1.361,0.217-2.338
										c0.217-2.081,0.521-5.002,0.894-8.589c0.81-7.292,1.92-17.281,3.146-28.315c0.672-5.507,1.024-10.855,2.542-15.501
										c0.739-2.314,1.828-4.404,3.046-6.17c1.19-1.795,2.417-3.39,3.65-4.746c2.461-2.721,4.849-4.526,6.571-5.621
										c0.857-0.557,1.551-0.945,2.028-1.193c0.477-0.249,0.731-0.371,0.739-0.356c0.009,0.016-0.229,0.169-0.688,0.447
										c-0.458,0.277-1.132,0.692-1.967,1.271c-1.678,1.14-4.008,2.972-6.408,5.697c-1.203,1.357-2.401,2.949-3.564,4.737
										c-1.199,1.774-2.231,3.794-2.951,6.081c-1.467,4.568-1.809,9.896-2.481,15.412c-1.285,11.028-2.448,21.01-3.297,28.298
										c-0.442,3.58-0.802,6.494-1.059,8.57c-0.131,0.973-0.236,1.748-0.314,2.327C273.967,298.7,273.917,298.978,273.899,298.976
										z"/>
								</g>
							</g>
						</g>
						<g>
							<g>
								<g>
									<path style="fill:#263238;" d="M257.385,296.25c0,0,0.202,0.012,0.594,0.061c0.41,0.055,0.986,0.132,1.735,0.232
										c1.543,0.218,3.785,0.536,6.664,0.943c5.802,0.844,14.166,2.061,24.493,3.564c20.69,3.062,49.242,7.287,80.778,11.954
										c12.633,1.886,24.785,3.701,35.927,5.365l-0.239,0.103c6.474-9.512,11.873-18.79,16.077-27.385
										c2.086-4.306,3.848-8.457,5.22-12.404c1.375-3.946,2.367-7.69,3.185-11.094c1.635-6.816,2.356-12.355,2.665-16.157
										c0.16-1.902,0.211-3.372,0.228-4.365c0.004-0.483,0.008-0.856,0.01-1.128c0-0.253,0.007-0.383,0.007-0.383
										s0.022,0.128,0.035,0.382c0.014,0.253,0.029,0.632,0.032,1.129c0.01,0.995-0.014,2.47-0.148,4.377
										c-0.258,3.814-0.933,9.373-2.53,16.215c-0.8,3.419-1.772,7.17-3.136,11.143c-1.36,3.971-3.112,8.143-5.19,12.468
										c-4.189,8.635-9.57,17.933-16.051,27.485l-0.085,0.126l-0.154-0.023c-11.143-1.655-23.297-3.461-35.931-5.338
										c-31.527-4.726-60.071-9.004-80.755-12.105c-10.317-1.572-18.672-2.845-24.469-3.728c-2.872-0.449-5.109-0.799-6.649-1.04
										c-0.745-0.122-1.319-0.216-1.727-0.283C257.582,296.297,257.385,296.25,257.385,296.25z"/>
								</g>
							</g>
						</g>
						<g style="opacity:0.3;">
							<g>
								<g>
									<path style="fill:#FFFFFF;" d="M328.792,234.475l-10.268-1.71c-1.491-0.248-2.262-3.08-1.722-6.325l0,0
										c0.483-2.901,1.867-5.205,3.258-5.425l11.269-1.781L328.792,234.475z"/>
								</g>
							</g>
						</g>
						<g>
							<g>
								<g>
									<path style="fill:#263238;" d="M162,268.393c-0.041,0.021-0.345-0.555-0.956-1.551c-0.605-0.999-1.581-2.388-2.979-3.935
										c-2.762-3.114-7.521-6.619-13.505-8.832c-5.989-2.212-11.777-2.985-15.927-3.471c-2.083-0.236-3.773-0.392-4.941-0.506
										c-1.168-0.114-1.814-0.189-1.811-0.226c0.001-0.018,0.164-0.025,0.474-0.021c0.37,0.012,0.816,0.027,1.352,0.044
										c1.173,0.052,2.871,0.152,4.964,0.342c4.17,0.394,10.009,1.111,16.072,3.349c6.062,2.24,10.869,5.854,13.598,9.075
										c1.382,1.6,2.322,3.038,2.878,4.077c0.301,0.507,0.47,0.936,0.608,1.212C161.956,268.233,162.016,268.385,162,268.393z"/>
								</g>
							</g>
						</g>
						<g>
							<g>
								<g>
									<path style="fill:#263238;" d="M165.852,241.537c-0.024,0.142-8.625-1.172-19.21-2.935
										c-10.588-1.763-19.15-3.307-19.126-3.449c0.024-0.142,8.623,1.172,19.212,2.935
										C157.312,239.851,165.875,241.395,165.852,241.537z"/>
								</g>
							</g>
						</g>
						<g style="opacity:0.5;">
							<g>
								<g>
									<path style="fill:#FFFFFF;" d="M256.4,302.169c0,0,0.007-0.17,0.045-0.498c0.044-0.348,0.105-0.831,0.184-1.451
										c0.094-0.636,0.177-1.427,0.262-2.363c0.105-0.934,0.19-2.014,0.253-3.233c0.312-4.86,0.247-11.981-1.36-20.559
										c-0.797-4.285-2.026-8.915-3.77-13.734c-1.742-4.812-3.95-9.869-7.117-14.672c-3.141-4.812-7.507-9.161-12.873-12.387
										c-5.332-3.273-11.527-5.51-18.055-6.662c-3.275-0.544-6.554-0.765-9.786-0.772c-3.232,0.068-6.41,0.359-9.492,0.907
										c-3.065,0.612-6.069,1.32-8.887,2.387l-1.063,0.37l-1.034,0.43c-0.687,0.287-1.37,0.572-2.05,0.855
										c-0.661,0.324-1.318,0.646-1.972,0.966l-0.977,0.479l-0.939,0.536c-5.021,2.802-9.34,6.26-12.8,10.029
										c-3.485,3.749-6.203,7.713-8.272,11.54c-2.073,3.831-3.497,7.525-4.504,10.835c-0.447,1.672-0.893,3.221-1.151,4.683
										c-0.333,1.447-0.498,2.793-0.67,4c-0.207,1.203-0.216,2.291-0.316,3.225c-0.098,0.935-0.094,1.73-0.109,2.373
										c-0.016,0.625-0.029,1.111-0.038,1.462c-0.011,0.33-0.031,0.499-0.031,0.499s-0.016-0.168-0.022-0.498
										c-0.003-0.352-0.008-0.838-0.014-1.464c-0.002-0.644-0.023-1.442,0.06-2.38c0.084-0.937,0.077-2.03,0.269-3.24
										c0.157-1.214,0.309-2.567,0.628-4.024c0.245-1.472,0.679-3.032,1.115-4.716c0.986-3.335,2.394-7.061,4.459-10.928
										c2.061-3.863,4.781-7.867,8.28-11.66c3.474-3.811,7.821-7.315,12.882-10.154l0.947-0.543l0.984-0.486
										c0.659-0.324,1.322-0.651,1.988-0.979c0.685-0.287,1.374-0.577,2.067-0.867l1.043-0.436l1.072-0.375
										c2.842-1.081,5.872-1.8,8.964-2.42c3.109-0.557,6.316-0.853,9.577-0.923c3.261,0.005,6.572,0.227,9.878,0.776
										c6.592,1.163,12.846,3.425,18.234,6.74c5.42,3.265,9.847,7.69,13.007,12.557c3.188,4.86,5.391,9.951,7.124,14.791
										c1.735,4.849,2.948,9.505,3.726,13.813c1.567,8.623,1.575,15.772,1.2,20.64C256.979,299.518,256.4,302.169,256.4,302.169z"
										/>
								</g>
							</g>
						</g>
						<g>
							<g>
								<g>
									<path style="fill:#263238;" d="M288.177,231.82c-0.002,0.009-0.132-0.006-0.383-0.043
										c-0.277-0.044-0.646-0.102-1.116-0.176c-1.008-0.171-2.444-0.415-4.28-0.726c-3.722-0.597-9.102-1.503-15.781-2.407
										c-6.676-0.917-14.644-1.879-23.517-2.684c-8.873-0.8-18.651-1.421-28.927-1.759c-10.281-0.329-20.077-0.248-28.992-0.131
										c-8.915,0.111-16.957,0.004-23.689-0.503c-6.733-0.5-12.136-1.394-15.823-2.188c-1.848-0.383-3.266-0.753-4.223-1.019
										c-0.459-0.126-0.819-0.225-1.089-0.3c-0.245-0.07-0.369-0.111-0.366-0.119c0.002-0.009,0.131,0.014,0.38,0.068
										c0.273,0.062,0.637,0.144,1.101,0.249c0.964,0.234,2.387,0.571,4.238,0.923c3.693,0.731,9.088,1.567,15.808,2.019
										c6.72,0.459,14.746,0.528,23.658,0.391c8.911-0.143,18.724-0.238,29.014,0.091c10.286,0.338,20.074,0.975,28.954,1.802
										c8.879,0.832,16.85,1.833,23.525,2.797c6.677,0.952,12.051,1.913,15.764,2.572c1.829,0.353,3.26,0.629,4.264,0.822
										c0.466,0.096,0.832,0.171,1.106,0.227C288.052,231.78,288.179,231.812,288.177,231.82z"/>
								</g>
							</g>
						</g>
						<g>
							<g>
								<g>
									<path style="fill:#263238;" d="M455.459,326.086c-0.024,0.142-10.854-1.544-24.188-3.764
										c-13.338-2.221-24.129-4.136-24.105-4.278c0.024-0.142,10.852,1.543,24.19,3.764
										C444.69,324.029,455.483,325.944,455.459,326.086z"/>
								</g>
							</g>
						</g>
						<g>
							<g>
								<g>
									<path style="fill:#263238;" d="M551.445,257.405c0.017,0.006-0.023,0.185-0.116,0.522
										c-0.113,0.392-0.254,0.877-0.424,1.467c-0.37,1.272-0.925,3.109-1.451,5.412c-0.517,2.298-0.996,5.094-0.863,8.197
										c0.135,3.092,1.116,6.471,3.215,9.378c2.075,2.919,4.802,5.1,7.459,6.693c2.673,1.6,5.297,2.652,7.511,3.469
										c2.223,0.808,4.056,1.372,5.317,1.781c0.584,0.191,1.063,0.348,1.451,0.475c0.33,0.114,0.502,0.182,0.497,0.199
										c-0.005,0.017-0.186-0.017-0.526-0.098c-0.395-0.102-0.884-0.228-1.479-0.382c-1.279-0.35-3.132-0.861-5.382-1.629
										c-2.243-0.777-4.905-1.802-7.633-3.404c-2.714-1.597-5.507-3.807-7.639-6.805c-2.158-2.984-3.161-6.496-3.269-9.656
										c-0.109-3.175,0.418-5.999,0.984-8.304c0.576-2.31,1.187-4.134,1.616-5.389c0.216-0.628,0.393-1.112,0.518-1.438
										C551.354,257.568,551.428,257.399,551.445,257.405z"/>
								</g>
							</g>
						</g>
						<g>
							<g>
								<path style="fill:#E0E0E0;" d="M612.474,293.739c-0.581,2.568-3.467,1.844-6.636,0.384
									c-5.034-2.319-7.319-8.422-4.765-13.341c0.016-0.03,0.031-0.06,0.047-0.091c1.595-3.013,4.798-5.113,8.206-5.003
									l0.714,0.077C610.041,275.765,614.251,285.879,612.474,293.739z"/>
							</g>
						</g>
						<g>
							<g>
								<g>
									<path style="fill:#263238;" d="M412.824,253.261c0.003-0.017,0.158-0.011,0.451,0.024c0.292,0.039,0.726,0.091,1.271,0.262
										c0.535,0.156,1.229,0.553,1.589,1.328c0.373,0.736,0.425,1.835-0.197,2.727c-0.6,0.885-1.693,1.485-2.909,1.625
										c-1.22,0.15-2.497-0.115-3.781-0.384c-2.591-0.545-5.425-1.141-8.4-1.767c-0.746-0.162-1.518-0.351-2.201-0.769
										c-0.671-0.414-1.246-1.066-1.387-1.881c-0.145-0.82,0.234-1.616,0.756-2.133c0.518-0.536,1.216-0.868,1.897-0.988
										c1.383-0.248,2.646,0.04,3.802,0.19c1.164,0.18,2.241,0.378,3.221,0.567c1.893,0.371,3.456,0.677,4.636,0.908
										c1.096,0.206,1.703,0.315,1.698,0.352c-0.002,0.018-0.158,0.014-0.451-0.009c-0.293-0.023-0.725-0.07-1.279-0.143
										c-1.109-0.14-2.704-0.41-4.67-0.746c-0.983-0.166-2.059-0.342-3.218-0.502c-1.156-0.135-2.412-0.388-3.646-0.147
										c-0.616,0.116-1.189,0.402-1.635,0.864c-0.443,0.448-0.723,1.083-0.609,1.699c0.105,0.619,0.574,1.172,1.155,1.526
										c0.59,0.361,1.304,0.543,2.04,0.702c2.971,0.64,5.802,1.25,8.39,1.807c1.285,0.284,2.505,0.547,3.633,0.424
										c1.111-0.108,2.113-0.641,2.654-1.405c0.559-0.763,0.545-1.717,0.235-2.394c-0.301-0.705-0.883-1.074-1.393-1.26
										C413.442,253.38,412.81,253.316,412.824,253.261z"/>
								</g>
							</g>
						</g>
					</g>
					<g>
						<g>
							<g>
								<path style="fill:#455A64;" d="M439.952,249.692l-18.497-6.417c-3.924-1.211-5.566-1.362-5.948-4.339
									c0.55-4.739,2.539-6.823,6.029-6.138c-0.137-0.829,19.784,5.783,28.169,8.6c2.309,0.776,4.144,2.547,5.003,4.827l0,0"/>
							</g>
						</g>
						<g>
							<g>
								<g>
									<path style="fill:#263238;" d="M440.001,249.741c-0.051-0.006,0.033-0.959,0.702-2.328c0.649-1.355,2.007-3.108,4.11-4.176
										c2.107-1.064,4.329-1.109,5.802-0.816c1.497,0.287,2.308,0.798,2.281,0.841c-0.033,0.086-0.885-0.295-2.338-0.478
										c-1.434-0.191-3.529-0.085-5.511,0.917c-1.979,1.005-3.313,2.621-4.02,3.884
										C440.302,248.859,440.089,249.766,440.001,249.741z"/>
								</g>
							</g>
						</g>
						<g>
							<g>
								<g>
									<path style="fill:#263238;" d="M421.703,241.778c0.037-0.139,4.458,0.919,9.873,2.362c5.417,1.444,9.776,2.727,9.739,2.866
										c-0.037,0.139-4.457-0.919-9.874-2.363C426.027,243.2,421.667,241.917,421.703,241.778z"/>
								</g>
							</g>
						</g>
						<g style="opacity:0.2;">
							<g>
								<g>
									<path d="M437.901,249.27c-0.507-1.526,0.192-3.281,1.429-4.309c1.237-1.027,3.298-1.295,4.906-1.267
										c-1.985,1.49-3.793,3.602-4.301,6.032L437.901,249.27z"/>
								</g>
							</g>
						</g>
						<g>
							<g>
								<g>
									<g>
										<g>
											<path style="fill:#263238;" d="M429.379,263.789l-0.015-0.029c-2.074,1.461-4.407,3.037-5.778,3.749
												c-2.825,1.468-2.96,1.217-3.075,0.858c-0.309-0.962,4.871-2.77,3.533-3.027c-1.338-0.257-6.078,2.948-6.359,1.93
												c-0.366-1.328,5.091-3.121,5.542-3.307c0.438-0.181,0.197-0.844-0.2-0.654c-0.572,0.273-6.65,2.987-7.022,1.687
												c-0.206-0.721,1.123-0.971,1.123-0.971s5.874-2.121,5.677-2.729c-0.199-0.617-3.689,0.512-4.839,0.975
												c-1.136,0.459-1.817,0.105-1.602-0.568c0.147-0.458,3.635-1.962,4.783-2.394c1.148-0.432,4.318-1.562,2.302-2.276
												c-2.016-0.715-3.296-2.023-3.396-2.619c-0.1-0.595,0.692-0.951,1.167-0.488c0.385,0.374,1.219,0.8,1.858,1.093
												c0.528,0.242,1.092,0.397,1.671,0.449c0.674,0.06,1.247,0.084,1.736,0.093c0,0,1.318-0.028,2.092,0.853
												c0.774,0.881,2.019,6.402,2.019,6.402L429.379,263.789z"/>
										</g>
									</g>
								</g>
							</g>
							<g>
								<g>
									<g>
										<path style="fill:#263238;" d="M429.244,254.609l3.173,8.021c0.204,0.517,0.005,1.105-0.471,1.391l-0.041,0.025
											c-0.603,0.363-1.388,0.095-1.644-0.561l-3.132-8.046c-0.189-0.486-0.023-1.037,0.402-1.339l0,0
											C428.132,253.674,428.973,253.924,429.244,254.609z"/>
									</g>
								</g>
							</g>
						</g>
						<g>
							<g>
								<path style="fill:#455A64;" d="M428.825,253.994l2.966,8.48l19.886-7.436c3.257-1.218,4.816-4.927,3.408-8.106l-1.483-2.719
									L428.825,253.994z"/>
							</g>
						</g>
						<g>
							<g>
								<g>
									<path style="fill:#263238;" d="M430.338,258.293c-0.02-0.079,1.423-0.494,3.71-1.29c2.291-0.788,5.413-1.996,8.832-3.411
										c3.42-1.417,6.515-2.716,8.785-3.587c1.134-0.437,2.058-0.776,2.704-0.989c0.645-0.215,1.008-0.318,1.02-0.285
										c0.013,0.034-0.325,0.201-0.947,0.474c-0.729,0.315-1.608,0.695-2.638,1.141c-2.23,0.956-5.299,2.307-8.725,3.727
										c-3.426,1.418-6.585,2.578-8.917,3.28c-1.164,0.355-2.116,0.612-2.781,0.759
										C430.717,258.261,430.347,258.327,430.338,258.293z"/>
								</g>
							</g>
						</g>
					</g>
				</g>
				<g>
					<g>
						<g>
							<path style="fill:#263238;" d="M418.08,242.479c-0.056,0.016-0.293-0.576-0.388-1.593c-0.098-1.012,0.013-2.455,0.564-3.924
								c0.556-1.467,1.425-2.624,2.167-3.32c0.743-0.702,1.311-0.989,1.343-0.941c0.051,0.069-0.432,0.458-1.076,1.195
								c-0.646,0.734-1.418,1.858-1.946,3.25c-0.522,1.394-0.684,2.747-0.683,3.725C418.057,241.85,418.163,242.461,418.08,242.479z
								"/>
						</g>
					</g>
				</g>
				<g>
					<g>
						<g>
							<path style="fill:#263238;" d="M409.481,232.535c0.097,0.117-1.198,1.313-2.601,2.957c-1.411,1.637-2.397,3.1-2.527,3.021
								c-0.119-0.065,0.686-1.682,2.132-3.36C407.923,233.469,409.398,232.427,409.481,232.535z"/>
						</g>
					</g>
				</g>
				<g>
					<g>
						<path style="fill:#EBEBEB;" d="M402.489,233.656c-0.474,0.263-0.522,1.044-0.084,1.363c0.438,0.319,1.167,0.034,1.272-0.497
							c0.105-0.531-0.46-1.073-0.986-0.945"/>
					</g>
				</g>
				<g>
					<g>
						<path style="fill:#EBEBEB;" d="M401.151,235.478c-0.474,0.263-0.522,1.044-0.084,1.363c0.437,0.319,1.167,0.034,1.272-0.497
							c0.105-0.531-0.46-1.073-0.986-0.945"/>
					</g>
				</g>
				<g>
					<g>
						<g>
							<path style="fill:#263238;" d="M409.81,234.861c0.108,0.095,0.114,0.264,0.014,0.378c-0.1,0.114-0.269,0.128-0.377,0.033
								c-0.108-0.095-0.114-0.264-0.014-0.378C409.534,234.781,409.702,234.766,409.81,234.861z"/>
						</g>
					</g>
				</g>
				<g>
					<g>
						<g>
							<path style="fill:#263238;" d="M408.072,237.518c0.096,0.107,0.112,0.249,0.035,0.318c-0.077,0.069-0.216,0.037-0.312-0.07
								c-0.096-0.107-0.112-0.249-0.035-0.318C407.836,237.38,407.975,237.411,408.072,237.518z"/>
						</g>
					</g>
				</g>
			</g>
		</g>
		<g style="opacity:0.5;">
			<path style="fill:#FFFFFF;" d="M347.383,233.235c0,0-32.327,33.879-32.328,52.632c0,0,9.467-7.099,14.375-7.372
				c0,0-11.551,9.758-12.39,33.152c0,0,21.546-38.801,46.83-49.24c0,0-18.758,4.693-23.316,7.381c0,0,24.915-25.38,40.615-32.041
				C381.168,237.748,356.011,234.39,347.383,233.235z"/>
		</g>
	</g>
</g>
</svg>
